<svg width="149" height="149" viewBox="0 0 149 149" fill="none" xmlns="http://www.w3.org/2000/svg">
<path d="M0 149V14.9C0 10.8025 1.4602 7.29355 4.3806 4.37315C7.29603 1.45772 10.8025 0 14.9 0H134.1C138.197 0 141.706 1.45772 144.627 4.37315C147.542 7.29355 149 10.8025 149 14.9V104.3C149 108.397 147.542 111.906 144.627 114.827C141.706 117.742 138.197 119.2 134.1 119.2H29.8L0 149Z" fill="#6DE28E"/>
<path fill-rule="evenodd" clip-rule="evenodd" d="M91.4064 67.2375C96.5127 70.725 100.091 75.45 100.091 81.75V93H111.273C113.323 93 115 91.3125 115 89.25V81.75C115 73.575 101.694 68.7375 91.4064 67.2375Z" fill="black"/>
<path d="M62.8182 63C71.0522 63 77.7273 56.2843 77.7273 48C77.7273 39.7157 71.0522 33 62.8182 33C54.5841 33 47.9091 39.7157 47.9091 48C47.9091 56.2843 54.5841 63 62.8182 63Z" fill="black"/>
<path fill-rule="evenodd" clip-rule="evenodd" d="M85.1818 63C93.4191 63 100.091 56.2875 100.091 48C100.091 39.7125 93.4191 33 85.1818 33C83.43 33 81.79 33.375 80.2245 33.9C83.4319 37.8908 85.1817 42.8678 85.1817 48C85.1817 53.1322 83.4319 58.1092 80.2245 62.1C81.79 62.625 83.43 63 85.1818 63ZM62.8182 66.75C52.8664 66.75 33 71.775 33 81.75V89.25C33 91.3125 34.6773 93 36.7273 93H88.9091C90.9591 93 92.6364 91.3125 92.6364 89.25V81.75C92.6364 71.775 72.77 66.75 62.8182 66.75Z" fill="black"/>
</svg>
